<svg xmlns="http://www.w3.org/2000/svg" viewBox="-0.75 -0.75 24 24" fill="none" stroke="currentColor" stroke-linecap="round" stroke-linejoin="round"><path d="M19.6875 7.5h-1.875a1.875 1.875 0 0 0 -1.875 1.875v3.75a1.875 1.875 0 0 0 1.875 1.875h1.875v-3.75h-0.9375" stroke-width="1.5"></path><path d="M6.5625 7.5H3.75a0.9375 0.9375 0 0 0 -0.9375 0.9375v1.875a0.9375 0.9375 0 0 0 0.9375 0.9375h1.875a0.9375 0.9375 0 0 1 0.9375 0.9375v1.875a0.9375 0.9375 0 0 1 -0.9375 0.9375H2.8125" stroke-width="1.5"></path><path d="m9.375 7.5 1.40625 7.5h0.9375L13.125 7.5" stroke-width="1.5"></path></svg>
