<svg viewBox="0 0 24 24" xmlns="http://www.w3.org/2000/svg">
	<g stroke="none" stroke-width="1" fill="none" fill-rule="evenodd">
		<path d="M7.94514768,0 L8.35021097,0.253164557 L8.35021097,7.29113924 C9.77919139,6.34598684 11.3600476,5.87341772 13.092827,5.87341772 C15.5907298,5.87341772 17.6610326,6.74542025 19.3037975,8.48945148 C20.9240587,10.2334827 21.7341772,12.382547 21.7341772,14.9367089 C21.7341772,17.5021225 20.9184329,19.6511868 19.2869198,21.3839662 C17.6441549,23.1279975 15.579478,24 13.092827,24 C10.9212268,24 9.06470532,23.2236365 7.52320675,21.6708861 L7.52320675,23.5780591 L3,23.5780591 L3,0.556962025 L7.94514768,0 Z M12.2320675,10.4472574 C11.0393752,10.4472574 10.0436046,10.8523166 9.24472574,11.6624473 C8.44584692,12.4950815 8.0464135,13.5864911 8.0464135,14.9367089 C8.0464135,16.2869266 8.44584692,17.3727104 9.24472574,18.1940928 C10.0323527,19.0154753 11.0281234,19.4261603 12.2320675,19.4261603 C13.5035225,19.4261603 14.5330481,18.9985978 15.3206751,18.1434599 C16.0970503,17.2995738 16.4852321,16.2306675 16.4852321,14.9367089 C16.4852321,13.6427502 16.0914245,12.5682181 15.3037975,11.7130802 C14.5161705,10.8691941 13.4922707,10.4472574 12.2320675,10.4472574 Z" fill="currentcolor" fill-rule="nonzero"></path>
	</g>
</svg>
