<svg xmlns="http://www.w3.org/2000/svg" fill="none" viewBox="-1 -1 24 24"><path stroke="currentColor" stroke-linecap="round" stroke-linejoin="round" d="M20.0365 8.12262c0.81675 -0.81675 1.2755416666666666 -1.9244866666666665 1.2755416666666666 -3.0795416666666666 0 -1.155055 -0.4587916666666666 -2.2628008333333334 -1.2755416666666666 -3.0795416666666666 -0.81675 -0.81675 -1.92445 -1.2755893333333332 -3.0795416666666666 -1.2755893333333332S14.694166666666668 1.1467866666666666 13.877416666666665 1.9635366666666667L4.638324166666666 11.202583333333333c-0.7994524999999999 0.7997 -1.3182308333333332 1.8369083333333331 -1.4785833333333334 2.95625l-0.3666666666666667 2.5868333333333333 -1.8507500000000001 1.8479999999999999c-0.16322625 0.16344166666666665 -0.2549085 0.38499999999999995 -0.2549085 0.616 0 0.23099999999999998 0.09168224999999999 0.45255833333333334 0.2549085 0.616l1.232 1.232c0.16345083333333332 0.16325833333333334 0.3850091666666666 0.254925 0.616 0.254925 0.23099999999999998 0 0.45254916666666667 -0.09166666666666667 0.616 -0.254925l1.8479999999999999 -1.8479999999999999 2.5868333333333333 -0.3666666666666667c1.1193325 -0.160325 2.1565591666666664 -0.6790666666666667 2.956259166666667 -1.4785833333333334L20.0365 8.12262Z" stroke-width="2"></path><path stroke="currentColor" stroke-linecap="round" stroke-linejoin="round" d="M8.949416666666666 1.9634725 20.0365 13.050583333333332" stroke-width="2"></path><path stroke="currentColor" stroke-linecap="round" stroke-linejoin="round" d="m6.486324166666666 15.513666666666666 5.5430925 -5.543083333333333" stroke-width="2"></path></svg>
