<svg xmlns="http://www.w3.org/2000/svg" fill="none" viewBox="-1 -1 24 24">
  <path stroke="currentColor" stroke-linecap="round" stroke-linejoin="round" d="M0.6875 7.5625h9.625" stroke-width="2"></path>
  <path stroke="currentColor" stroke-linecap="round" stroke-linejoin="round" d="M7.104166666666666 0.6875V3.6666666666666665" stroke-width="2"></path>
  <path stroke="currentColor" stroke-linecap="round" stroke-linejoin="round" d="M3.895833333333333 0.6875V3.6666666666666665" stroke-width="2"></path>
  <path stroke="currentColor" stroke-linecap="round" stroke-linejoin="round" d="M9.625 0.6875h-8.25c-0.18160083333333332 0.0023741666666666664 -0.3550891666666666 0.07556908333333333 -0.48351049999999995 0.2039895C0.7630690833333333 1.0199108333333333 0.6898741666666666 1.1933991666666666 0.6875 1.375V8.25c0.0014015833333333332 0.9064458333333333 0.26073666666666667 1.7937333333333334 0.7476975 2.558325 0.4869608333333333 0.7645 1.1814458333333333 1.3746333333333334 2.0023025 1.759175V16.5c0 0.546975 0.21729583333333333 1.0715833333333333 0.6040924999999999 1.4584166666666665 0.3867966666666667 0.38674166666666665 0.9113958333333333 0.6040833333333333 1.4584074999999999 0.6040833333333333 0.5470116666666667 0 1.0716108333333334 -0.21734166666666666 1.4584074999999999 -0.6040833333333333 0.3867966666666667 -0.3868333333333333 0.6040924999999999 -0.9114416666666666 0.6040924999999999 -1.4584166666666665v-3.9324999999999997c0.8208566666666667 -0.3845416666666666 1.5153416666666666 -0.9946749999999999 2.002275 -1.759175 0.487025 -0.7645916666666666 0.74635 -1.6518791666666666 0.747725 -2.558325V1.375c-0.0023833333333333332 -0.18160083333333332 -0.07553333333333333 -0.3550891666666666 -0.20395833333333332 -0.48351049999999995C9.980116666666666 0.7630690833333333 9.806591666666666 0.6898741666666666 9.625 0.6875Z" stroke-width="2"></path>
  <path stroke="currentColor" stroke-linecap="round" stroke-linejoin="round" d="M12.375 7.773314999999999c0.9094249999999999 -0.14490666666666666 1.8291166666666667 -0.21541666666666665 2.75 -0.21082416666666665 3.4191666666666665 0 6.1875 0.9166575 6.1875 2.0625091666666666 0 1.1458333333333333 -2.75 2.0625 -6.1875 2.0625 -0.9208833333333333 0.004583333333333333 -1.8405749999999996 -0.06590833333333333 -2.75 -0.21083333333333334" stroke-width="2"></path>
  <path stroke="currentColor" stroke-linecap="round" stroke-linejoin="round" d="M9.625 20.166666666666664c1.7087583333333334 0.8334333333333334 3.6014916666666665 1.2183416666666667 5.5 1.1183333333333332 3.4191666666666665 0 6.1875 -0.9166666666666666 6.1875 -2.0625V9.625" stroke-width="2"></path>
</svg>
