<svg xmlns="http://www.w3.org/2000/svg" fill="none" viewBox="-1 -1 24 24"><path stroke="currentColor" stroke-linecap="round" stroke-linejoin="round" d="M21.3125 11.003575H6.875" stroke-width="2"></path><path stroke="currentColor" stroke-linecap="round" stroke-linejoin="round" d="m10.3125 14.441075 -3.4375 -3.4375 3.4375 -3.437490833333333" stroke-width="2"></path><path stroke="currentColor" stroke-linecap="round" stroke-linejoin="round" d="M14.4375 15.125V19.25c0.015675 0.34796666666666665 -0.106975 0.6879583333333332 -0.34136666666666665 0.9456333333333333 -0.23429999999999998 0.257675 -0.5610916666666667 0.41204166666666664 -0.9089666666666667 0.4293666666666666H1.9369258333333332c-0.3476825 -0.017599999999999998 -0.6742816666666667 -0.17205833333333334 -0.9083983333333333 -0.4297333333333333C0.7944108333333333 19.937591666666666 0.67180575 19.597783333333332 0.6875128333333332 19.25V2.75c-0.015950916666666665 -0.34783833333333336 0.10656891666666667 -0.6878299999999999 0.34073966666666666 -0.9455325 0.2341625 -0.25771166666666667 0.5608991666666667 -0.4121333333333333 0.9086733333333333 -0.42946749999999995H13.187166666666666c0.347875 0.017334166666666664 0.6746666666666666 0.17172833333333334 0.9089666666666667 0.4294125 0.23439166666666664 0.257675 0.35704166666666665 0.5976575 0.34136666666666665 0.9455874999999999v4.125" stroke-width="2"></path></svg>
