<svg xmlns="http://www.w3.org/2000/svg" fill="none" viewBox="-1 -1 24 24"><path stroke="currentColor" stroke-linecap="round" stroke-linejoin="round" d="m17.99325 17.622 -6.315833333333333 3.44575c-0.20203333333333334 0.110275 -0.42844999999999994 0.16802499999999998 -0.658625 0.16802499999999998 -0.230175 0 -0.4565916666666666 -0.057749999999999996 -0.658625 -0.16802499999999998l-6.315833333333333 -3.44575c-0.183205 -0.099825 -0.3413116666666667 -0.2399833333333333 -0.46233 -0.4099333333333333 -0.12101833333333332 -0.16985833333333333 -0.20177666666666666 -0.3651083333333333 -0.23616999999999996 -0.5709L0.9725833333333332 2.4025833333333333c-0.03274333333333333 -0.19696416666666666 -0.022201666666666665 -0.39870416666666664 0.03090083333333333 -0.5911858333333333 0.0531025 -0.19248166666666666 0.14749166666666666 -0.371085 0.27660416666666665 -0.5233983333333333 0.12910333333333332 -0.15231333333333333 0.2898408333333333 -0.2746791666666667 0.47101999999999994 -0.3586 0.18118833333333334 -0.08391074999999999 0.37847333333333333 -0.12735708333333334 0.5781416666666667 -0.12731583333333335H19.708333333333332c0.19955833333333334 0.00009166666666666667 0.3967333333333333 0.04363608333333333 0.5778666666666666 0.12760916666666666 0.18104166666666666 0.08396666666666666 0.3416416666666666 0.20636 0.4707083333333333 0.358655 0.12897499999999998 0.152295 0.2233 0.33085249999999994 0.276375 0.52327 0.05298333333333333 0.1924175 0.063525 0.394075 0.030799999999999998 0.5909658333333333L18.690833333333334 16.641166666666667c-0.033916666666666664 0.20579166666666665 -0.11439999999999999 0.4011333333333333 -0.2353083333333333 0.571175 -0.12081666666666666 0.16995 -0.27894166666666664 0.3101083333333333 -0.46227499999999994 0.40965833333333335Z" stroke-width="2"></path><path stroke="currentColor" stroke-linecap="round" stroke-linejoin="round" d="M15.830833333333333 4.927083333333333H6.205833333333333l0.6875 4.125h8.25l-0.6875 5.5 -3.4375 2.0625 -3.4375 -2.0625" stroke-width="2"></path></svg>
