<svg xmlns="http://www.w3.org/2000/svg" viewBox="0 0 32 32">
  <path d="M6 6h4v4H6Z" fill="currentColor" stroke-width="1"></path>
  <path d="M10 10h4v4h-4Z" fill="currentColor" stroke-width="1"></path>
  <path d="M14 6h4v4h-4Z" fill="currentColor" stroke-width="1"></path>
  <path d="M22 6h4v4h-4Z" fill="currentColor" stroke-width="1"></path>
  <path d="M6 14h4v4H6Z" fill="currentColor" stroke-width="1"></path>
  <path d="M14 14h4v4h-4Z" fill="currentColor" stroke-width="1"></path>
  <path d="M22 14h4v4h-4Z" fill="currentColor" stroke-width="1"></path>
  <path d="M6 22h4v4H6Z" fill="currentColor" stroke-width="1"></path>
  <path d="M14 22h4v4h-4Z" fill="currentColor" stroke-width="1"></path>
  <path d="M22 22h4v4h-4Z" fill="currentColor" stroke-width="1"></path>
  <path d="M18 10h4v4h-4Z" fill="currentColor" stroke-width="1"></path>
  <path d="M10 18h4v4h-4Z" fill="currentColor" stroke-width="1"></path>
  <path d="M18 18h4v4h-4Z" fill="currentColor" stroke-width="1"></path>
  <path d="M0 0h32v32H0Z" fill="none" stroke-width="1"></path>
</svg>
