<svg xmlns="http://www.w3.org/2000/svg" fill="none" viewBox="-1 -1 24 24">
  <path stroke="currentColor" stroke-linecap="round" stroke-linejoin="round" d="M12.49325 21.3125H2.0625c-0.3646683333333333 0 -0.7144133333333333 -0.14483333333333334 -0.9722716666666665 -0.40269166666666667C0.8323654166666666 20.65195 0.6875 20.30215 0.6875 19.9375V2.0625c0 -0.3646683333333333 0.14486541666666666 -0.7144133333333333 0.4027283333333333 -0.9722716666666665C1.3480866666666667 0.8323654166666666 1.6978316666666666 0.6875 2.0625 0.6875h17.875c0.36465 0 0.7144499999999999 0.14486541666666666 0.9723083333333332 0.4027283333333333 0.2578583333333333 0.2578583333333333 0.40269166666666667 0.6076033333333333 0.40269166666666667 0.9722716666666665v10.43075c-0.00009166666666666667 0.364375 -0.14483333333333334 0.7139 -0.40241666666666664 0.9716666666666667l-7.445166666666666 7.445166666666666c-0.25776666666666664 0.25758333333333333 -0.6072916666666667 0.402325 -0.9716666666666667 0.40241666666666664Z" stroke-width="2"></path>
  <path stroke="currentColor" stroke-linecap="round" stroke-linejoin="round" d="M13.0625 21.18875V14.4375c0 -0.36465 0.14483333333333334 -0.7144499999999999 0.40269166666666667 -0.9723083333333332s0.6076583333333333 -0.40269166666666667 0.9723083333333332 -0.40269166666666667h6.75125" stroke-width="2"></path>
  <path stroke="currentColor" stroke-linecap="round" stroke-linejoin="round" d="M6.1875 6.1875h11" stroke-width="2"></path>
  <path stroke="currentColor" stroke-linecap="round" stroke-linejoin="round" d="M6.1875 10.3125H11" stroke-width="2"></path>
</svg>
