<svg xmlns="http://www.w3.org/2000/svg" fill="none" viewBox="0 0 48 48"><path fill="currentcolor" d="M23.994 13c-0.696 0 -1.2857 -0.2437 -1.769 -0.731 -0.4833 -0.4873 -0.725 -1.079 -0.725 -1.775s0.2437 -1.28567 0.731 -1.769C22.7183 8.24167 23.31 8 24.006 8s1.2857 0.24367 1.769 0.731c0.4833 0.48733 0.725 1.079 0.725 1.775s-0.2437 1.2857 -0.731 1.769c-0.4873 0.4833 -1.079 0.725 -1.775 0.725Zm0 27c-0.696 0 -1.2857 -0.2437 -1.769 -0.731 -0.4833 -0.4873 -0.725 -1.079 -0.725 -1.775s0.2437 -1.2857 0.731 -1.769c0.4873 -0.4833 1.079 -0.725 1.775 -0.725s1.2857 0.2437 1.769 0.731c0.4833 0.4873 0.725 1.079 0.725 1.775s-0.2437 1.2857 -0.731 1.769c-0.4873 0.4833 -1.079 0.725 -1.775 0.725Z" stroke-width="1"></path></svg>
