<svg  xmlns="http://www.w3.org/2000/svg" viewBox="0 0 32 32">
  <path d="M15 2h2v5h-2Z" fill="currentColor"></path>
  <path transform="rotate(-45 24.147 7.853)" d="M21.6675 6.8536h4.958v1.9998h-4.958Z" fill="currentColor"></path>
  <path d="M25 15h5v2h-5Z" fill="currentColor"></path>
  <path transform="rotate(-45 24.147 24.146)" d="M23.1466 21.6675h1.9998v4.958h-1.9998Z" fill="currentColor"></path>
  <path d="M15 25h2v5h-2Z" fill="currentColor"></path>
  <path transform="rotate(-45 7.853 24.146)" d="M5.3745 23.1466h4.958v1.9998h-4.958Z" fill="currentColor"></path>
  <path d="M2 15h5v2H2Z" fill="currentColor"></path>
  <path transform="rotate(-45 7.854 7.853)" d="M6.8536 5.3745h1.9998v4.958H6.8536Z" fill="currentColor"></path>
  <path d="M16 12a4 4 0 1 1-4 4 4.0045 4.0045 0 0 1 4-4m0-2a6 6 0 1 0 6 6 6 6 0 0 0-6-6Z" fill="currentColor"></path>
  <path d="M0 0h32v32H0Z" fill="none"></path>
</svg>
