<svg xmlns="http://www.w3.org/2000/svg" fill="none" viewBox="-1 -1 24 24" id="Programming-Hold-Code-2--Streamline-Ultimate"><desc>Programming Hold Code 2 Streamline Icon: https://streamlinehq.com</desc><path stroke="currentColor" stroke-linecap="round" stroke-linejoin="round" d="m3.4375 21.3125 -1.8333333333333333 -2.31c-0.58949 -0.7294833333333333 -0.9128166666666666 -1.6379916666666665 -0.9166666666666666 -2.575833333333333v-4.739166666666667c0 -0.36465 0.14486541666666666 -0.7144499999999999 0.4027283333333333 -0.9723083333333332 0.2578583333333333 -0.2578583333333333 0.6076033333333333 -0.40269166666666667 0.9722716666666665 -0.40269166666666667 0.3646683333333333 0 0.7144133333333333 0.14483333333333334 0.9722716666666665 0.40269166666666667 0.2578583333333333 0.2578583333333333 0.4027283333333333 0.6076583333333333 0.4027283333333333 0.9723083333333332v3.5475" stroke-width="2"></path><path stroke="currentColor" stroke-linecap="round" stroke-linejoin="round" d="M7.562490833333333 21.312591666666666v-2.8783333333333334c0.0016316666666666665 -0.8134499999999999 -0.24107416666666664 -1.608658333333333 -0.6966666666666667 -2.2825l-1.045 -1.5766666666666667c-0.09054833333333334 -0.15060833333333332 -0.2108425 -0.2811416666666666 -0.35353083333333335 -0.383625 -0.14268833333333333 -0.10248333333333333 -0.30477333333333334 -0.17480833333333334 -0.476355 -0.212575 -0.17158166666666666 -0.037766666666666664 -0.3490575 -0.040058333333333335 -0.5215833333333333 -0.006966666666666666 -0.17252583333333332 0.033183333333333336 -0.33649 0.10110833333333333 -0.4818641666666666 0.19983333333333334 -0.25916 0.17416666666666666 -0.44589416666666665 0.436975 -0.5252041666666666 0.7390166666666667 -0.07930999999999999 0.30204166666666665 -0.045759999999999995 0.6226916666666666 0.09437083333333333 0.9018166666666666l1.2558333333333334 2.0625" stroke-width="2"></path><path stroke="currentColor" stroke-linecap="round" stroke-linejoin="round" d="m18.5625 21.3125 1.8333333333333333 -2.31c0.5895083333333333 -0.7294833333333333 0.9128166666666666 -1.6379916666666665 0.9166666666666666 -2.575833333333333v-4.739166666666667c0 -0.36465 -0.14483333333333334 -0.7144499999999999 -0.40269166666666667 -0.9723083333333332s-0.6076583333333333 -0.40269166666666667 -0.9723083333333332 -0.40269166666666667c-0.36465 0 -0.7144499999999999 0.14483333333333334 -0.9723083333333332 0.40269166666666667s-0.40269166666666667 0.6076583333333333 -0.40269166666666667 0.9723083333333332v3.5475" stroke-width="2"></path><path stroke="currentColor" stroke-linecap="round" stroke-linejoin="round" d="M14.4375 21.312591666666666v-2.8783333333333334c-0.00165 -0.8134499999999999 0.24108333333333334 -1.608658333333333 0.6966666666666667 -2.2825l1.045 -1.5766666666666667c0.09056666666666666 -0.15060833333333332 0.21083333333333334 -0.2811416666666666 0.3535583333333333 -0.383625 0.1426333333333333 -0.10248333333333333 0.3047916666666667 -0.17480833333333334 0.47629999999999995 -0.212575 0.1716 -0.037766666666666664 0.3490666666666667 -0.040058333333333335 0.5215833333333333 -0.006966666666666666 0.1726083333333333 0.033183333333333336 0.3365083333333333 0.10110833333333333 0.4818916666666666 0.19983333333333334 0.25914166666666666 0.17416666666666666 0.44586666666666663 0.436975 0.5252499999999999 0.7390166666666667 0.07929166666666666 0.30204166666666665 0.04574166666666667 0.6226916666666666 -0.09441666666666666 0.9018166666666666l-1.2558333333333334 2.0625" stroke-width="2"></path><path stroke="currentColor" stroke-linecap="round" stroke-linejoin="round" d="m6.801666666666667 2.3650733333333336 -3.3641666666666663 2.520833333333333 3.3641666666666663 2.520833333333333" stroke-width="2"></path><path stroke="currentColor" stroke-linecap="round" stroke-linejoin="round" d="m15.19833333333333 2.3650733333333336 3.3641666666666663 2.520833333333333 -3.3641666666666663 2.520833333333333" stroke-width="2"></path><path stroke="currentColor" stroke-linecap="round" stroke-linejoin="round" d="m11.843333333333332 0.6875 -1.6866666666666668 8.405833333333334" stroke-width="2"></path></svg>