<svg xmlns="http://www.w3.org/2000/svg" fill="none" viewBox="-1 -1 24 24"><path stroke="currentColor" stroke-linecap="round" stroke-linejoin="round" d="M11.001833333333334 15.809841666666665v5.5" stroke-width="2"></path><path stroke="currentColor" stroke-linecap="round" stroke-linejoin="round" d="M11.001833333333334 0.6848141666666666v5.5" stroke-width="2"></path><path stroke="currentColor" stroke-linecap="round" stroke-linejoin="round" d="M6.1893425 10.997341666666665H0.6893461666666666" stroke-width="2"></path><path stroke="currentColor" stroke-linecap="round" stroke-linejoin="round" d="M21.31433333333333 10.997341666666665h-5.5" stroke-width="2"></path><path stroke="currentColor" stroke-linecap="round" stroke-linejoin="round" d="M3.4393424999999995 10.998166666666666c0 0.9932083333333332 0.19561666666666666 1.9765166666666667 0.5756666666666667 2.8941 0.38005 0.9174916666666665 0.9370991666666666 1.7512 1.6393391666666666 2.4534583333333333 0.7022491666666667 0.7022583333333333 1.5359299999999998 1.2593166666666666 2.4534583333333333 1.6393666666666666 0.9175191666666667 0.38005 1.9009099999999997 0.575575 2.8940266666666665 0.575575 0.9931166666666665 0 1.9765166666666667 -0.19552499999999998 2.8941 -0.575575 0.9174916666666665 -0.38005 1.7512 -0.9371083333333333 2.4533666666666667 -1.6393666666666666 0.7022583333333333 -0.7022583333333333 1.2593166666666666 -1.5359666666666665 1.6393666666666666 -2.4534583333333333 0.38005 -0.9175833333333332 0.5756666666666667 -1.9008916666666666 0.5756666666666667 -2.8941 0 -0.9931166666666665 -0.19561666666666666 -1.9764799999999998 -0.5756666666666667 -2.8939991666666667 -0.38005 -0.9175283333333333 -0.9371083333333333 -1.7512091666666665 -1.6393666666666666 -2.4534491666666662 -0.7021666666666666 -0.7022491666666667 -1.5358749999999999 -1.2592983333333332 -2.4533666666666667 -1.6393483333333334 -0.9175833333333332 -0.38005 -1.900983333333333 -0.5756575 -2.8941 -0.5756575 -0.9931166666666665 0 -1.9765074999999999 0.1956075 -2.8940266666666665 0.5756575 -0.9175283333333333 0.38005 -1.7512091666666665 0.9370991666666666 -2.4534583333333333 1.6393483333333334 -0.70224 0.70224 -1.2592891666666666 1.5359208333333334 -1.6393391666666666 2.4534491666666662 -0.38005 0.9175191666666667 -0.5756666666666667 1.9008825 -0.5756666666666667 2.8939991666666667Z" stroke-width="2"></path></svg>
