<svg xmlns="http://www.w3.org/2000/svg" xmlns:xlink="http://www.w3.org/1999/xlink" viewBox="0 0 33 30" version="1.1">
	<path d="M 7.464844 2.492188 C 11.121094 5.316406 15.054688 11.046875 16.5 14.121094 C 17.945312 11.046875 21.878906 5.316406 25.535156 2.492188 C 28.175781 0.453125 32.449219 -1.125 32.449219 3.894531 C 32.449219 4.898438 31.890625 12.316406 31.5625 13.523438 C 30.425781 17.710938 26.277344 18.777344 22.585938 18.132812 C 29.035156 19.261719 30.679688 23.003906 27.132812 26.746094 C 20.402344 33.855469 17.457031 24.964844 16.703125 22.6875 C 16.566406 22.269531 16.5 22.074219 16.5 22.238281 C 16.5 22.074219 16.433594 22.269531 16.296875 22.6875 C 15.542969 24.964844 12.597656 33.855469 5.867188 26.746094 C 2.320312 23.003906 3.964844 19.261719 10.414062 18.132812 C 6.722656 18.777344 2.574219 17.710938 1.4375 13.523438 C 1.109375 12.316406 0.550781 4.898438 0.550781 3.894531 C 0.550781 -1.125 4.824219 0.453125 7.464844 2.492188 Z M 7.464844 2.492188 "/>
</svg>
