<svg xmlns="http://www.w3.org/2000/svg" viewBox="0 0 24 24" fill="currentColor" aria-hidden="true" id="Moon--Streamline-Heroicons">
  <desc>
    Moon Streamline Icon: https://streamlinehq.com
  </desc>
  <path fill-rule="evenodd" d="M9.528 1.718a0.75 0.75 0 0 1 0.162 0.819A8.97 8.97 0 0 0 9 6a9 9 0 0 0 9 9 8.97 8.97 0 0 0 3.463 -0.69 0.75 0.75 0 0 1 0.981 0.98 10.503 10.503 0 0 1 -9.694 6.46c-5.799 0 -10.5 -4.7 -10.5 -10.5 0 -4.368 2.667 -8.112 6.46 -9.694a0.75 0.75 0 0 1 0.818 0.162Z" clip-rule="evenodd" stroke-width="1"></path>
</svg>