<svg xmlns="http://www.w3.org/2000/svg" viewBox="0 0 24 24" fill="currentColor" aria-hidden="true" id="Sun--Streamline-Heroicons">
  <desc>
    Sun Streamline Icon: https://streamlinehq.com
  </desc>
  <path d="M12 2.25a0.75 0.75 0 0 1 0.75 0.75v2.25a0.75 0.75 0 0 1 -1.5 0V3a0.75 0.75 0 0 1 0.75 -0.75ZM7.5 12a4.5 4.5 0 1 1 9 0 4.5 4.5 0 0 1 -9 0Zm11.394 -5.834a0.75 0.75 0 0 0 -1.06 -1.06l-1.591 1.59a0.75 0.75 0 1 0 1.06 1.061l1.591 -1.59ZM21.75 12a0.75 0.75 0 0 1 -0.75 0.75h-2.25a0.75 0.75 0 0 1 0 -1.5H21a0.75 0.75 0 0 1 0.75 0.75Zm-3.916 6.894a0.75 0.75 0 0 0 1.06 -1.06l-1.59 -1.591a0.75 0.75 0 1 0 -1.061 1.06l1.59 1.591ZM12 18a0.75 0.75 0 0 1 0.75 0.75V21a0.75 0.75 0 0 1 -1.5 0v-2.25A0.75 0.75 0 0 1 12 18Zm-4.242 -0.697a0.75 0.75 0 0 0 -1.061 -1.06l-1.591 1.59a0.75 0.75 0 0 0 1.06 1.061l1.591 -1.59ZM6 12a0.75 0.75 0 0 1 -0.75 0.75H3a0.75 0.75 0 0 1 0 -1.5h2.25A0.75 0.75 0 0 1 6 12Zm0.697 -4.243a0.75 0.75 0 0 0 1.06 -1.06l-1.59 -1.591a0.75 0.75 0 0 0 -1.061 1.06l1.59 1.591Z" stroke-width="1"></path>
</svg>